<?xml version="1.0" encoding="UTF-8"?>
<svg width="300px" height="300px" viewBox="0 0 2101 1801" version="1.1" xmlns="http://www.w3.org/2000/svg" xmlns:xlink="http://www.w3.org/1999/xlink">
    <!-- Generator: Sketch 51.2 (57519) - http://www.bohemiancoding.com/sketch -->
    <title>Fill 3</title>
    <desc>Created with Sketch.</desc>
    <defs></defs>
    <g id="Page-4" stroke="none" stroke-width="1" fill="none" fill-rule="evenodd">
        <path d="M1128.81681,474.580081 C1125.57403,473.956576 1122.32309,473.33307 1119.07487,472.709564 C1115.63878,490.148664 1112.20542,507.579596 1108.76388,525.018696 C1111.8324,525.598638 1114.90092,526.17858 1117.964,526.758522 C1121.57978,509.362986 1125.19557,491.967449 1128.81681,474.580081 Z M1293.59656,997.930057 C1297.92571,998.553562 1302.25757,999.174345 1306.58672,999.797851 C1311.86337,983.826304 1319.33455,968.129752 1321.27041,951.766132 C1321.99194,945.672657 1309.77231,938.046284 1303.45557,931.122376 C1299.37148,937.349264 1292.2243,943.380116 1291.79956,949.852051 C1290.75131,965.774589 1292.7988,981.890441 1293.59656,997.930057 Z M1237.6308,731.834713 C1234.13209,730.990666 1230.63882,730.152065 1227.14011,729.308018 C1217.72763,742.545942 1207.50105,755.342783 1199.75215,769.495545 C1198.54598,771.695513 1208.6691,780.095142 1213.55096,785.625011 C1224.19412,774.173199 1235.8338,763.423853 1244.76164,750.763148 C1246.94254,747.667401 1240.24735,738.314816 1237.6308,731.834713 Z M1090.42356,838.418789 C1121.36197,837.427714 1145.02523,819.906933 1138.39538,805.612588 C1132.29646,792.467237 1116.30857,783.90969 1104.67434,773.329152 C1095.72472,789.382382 1085.35928,804.89651 1078.83017,821.875468 C1077.20197,826.106594 1087.95404,835.099778 1090.42356,838.418789 Z M1337.24468,334.797732 C1371.43948,293.48027 1391.95526,186.994213 1372.39515,163.020555 C1341.21715,215.160878 1349.15663,272.918196 1337.24468,334.797732 Z M1161.66657,558.080833 C1159.1072,557.484555 1156.55056,556.896445 1153.98574,556.297444 C1149.57219,566.834418 1143.77005,577.020159 1140.99559,587.970988 C1132.92813,619.767055 1125.04582,651.693813 1119.43699,683.977249 C1117.92043,692.66821 1124.73815,702.81311 1127.7386,712.288219 C1135.87957,705.187333 1149.76551,699.05574 1151.15138,690.814029 C1156.75204,657.558578 1158.73147,623.679621 1161.53316,589.98581 C1162.40988,579.421609 1161.66657,568.721271 1161.66657,558.080833 Z M870.688178,587.49451 C867.009767,587.23585 863.331355,586.982636 859.652944,586.729422 C848.693947,633.917094 836.338188,680.865166 828.235337,728.540207 C826.980157,735.924257 845.219741,746.619149 854.444357,755.781143 C859.859872,749.902764 869.822349,744.136017 869.972099,738.126947 C871.232724,687.941547 870.688178,637.70986 870.688178,587.49451 Z M1585.23113,304.319467 C1582.52474,303.921948 1579.82379,303.524429 1577.11739,303.12691 C1562.66785,357.998133 1548.47969,412.937424 1533.65986,467.70246 C1526.55898,493.944153 1517.27446,519.627686 1511.08024,546.057248 C1509.13349,554.394254 1511.10203,569.870264 1516.26433,572.584828 C1540.7308,585.463351 1591.61322,550.966334 1591.42807,523.00932 C1591.01149,462.967628 1590.45333,402.925937 1589.41597,342.889692 C1589.19271,330.013891 1586.68235,317.178931 1585.23113,304.319467 Z M1426.90425,523.148179 C1427.56315,523.09917 1428.21661,523.044715 1428.87551,522.995706 C1427.05673,507.222918 1426.58569,491.134293 1423.02708,475.767193 C1419.71352,461.483739 1409.58768,455.981098 1395.1572,463.264406 C1351.88481,485.119778 1303.25954,576.24418 1308.19313,625.109055 C1309.72058,640.225665 1315.34575,646.8773 1331.64402,644.320654 C1401.86056,633.318093 1422.60778,610.978075 1426.85524,540.01006 C1427.19559,534.406677 1426.90425,528.767898 1426.90425,523.148179 Z M1118.18181,1142.39551 C1120.97806,1141.91086 1123.77158,1141.42621 1126.56238,1140.9334 C1130.63015,1072.00743 1135.19889,1003.10053 1138.61864,934.141886 C1141.92676,867.456728 1143.3562,869.817337 1075.87872,894.014258 C1047.53508,904.18094 1035.85184,944.262282 1048.03334,971.963359 C1068.73155,1019.02579 1087.86419,1066.77979 1107.53593,1114.28874 C1111.36409,1123.53786 1114.64499,1133.01842 1118.18181,1142.39551 Z M1289.02782,846.047885 C1290.4627,846.777577 1291.9003,847.512715 1293.33518,848.239684 C1293.69186,852.90917 1292.20797,859.38655 1294.71288,861.93775 C1307.28918,874.759096 1320.91373,886.553972 1334.17072,898.705526 C1341.95229,889.543532 1352.82143,881.582263 1356.95182,870.988112 C1370.9276,835.200519 1383.23435,798.699571 1394.74606,762.021645 C1401.47393,740.588297 1406.91395,718.51783 1410.33371,696.341176 C1414.19999,671.234862 1405.94194,664.23744 1382.17521,671.400949 C1366.11653,676.241967 1350.76305,683.590621 1335.35783,690.411065 C1299.1945,706.423453 1295.10495,721.864068 1311.58021,758.710803 C1316.37222,769.427477 1314.96729,784.990614 1311.4359,796.856282 C1306.34167,813.963208 1296.71681,829.716937 1289.02782,846.047885 Z M675.438327,549.738382 C645.2759,570.934852 535.021581,830.893157 541.128669,857.472469 C566.493643,847.21866 591.387583,836.482926 616.787952,827.116728 C635.680991,820.149256 645.540005,807.948693 647.750863,787.78686 C653.076527,739.18609 659.447721,690.70512 665.18724,642.145191 C668.566151,613.570116 671.54482,584.951478 675.438327,549.738382 Z M1587.40115,1103.27801 C1590.35259,1103.30796 1593.30403,1103.34063 1596.26092,1103.37331 C1596.26092,1059.60266 1596.48419,1015.82385 1596.20102,972.053209 C1595.81984,912.888238 1594.49115,853.717821 1594.60278,794.55285 C1594.71441,738.186848 1596.51686,681.823568 1596.86809,625.457565 C1597.04235,597.606737 1589.56028,592.684037 1562.16142,598.654989 C1509.49017,610.131305 1477.86836,639.343499 1464.29281,694.231058 C1445.86808,768.73318 1420.51128,841.544486 1397.26187,914.802319 C1391.50329,932.957497 1395.46486,944.608069 1410.96538,955.689589 C1439.94886,976.420472 1468.45042,997.97362 1495.68864,1020.92898 C1527.08719,1047.39121 1556.89838,1075.7403 1587.40115,1103.27801 Z M1147.61183,339.344694 C1152.33304,328.363915 1158.00177,317.674469 1161.55494,306.320675 C1167.01674,288.867962 1179.77819,279.049789 1195.26509,285.682365 C1205.09143,289.894432 1216.33359,305.893206 1216.03409,316.294043 C1213.02547,422.456096 1207.76515,528.555525 1203.18824,634.674014 C1202.82611,643.138988 1201.06451,652.118559 1203.21819,659.960028 C1205.63325,668.746285 1211.76484,676.506072 1216.27913,684.712387 C1226.24433,679.010985 1242.47454,675.226387 1244.91139,667.229723 C1250.50116,648.919349 1249.92121,628.580539 1250.7816,609.017708 C1251.6801,588.545484 1250.94768,568.005192 1251.60114,547.51391 C1253.4526,489.39719 1256.4231,431.302253 1257.48224,373.174642 C1258.54683,314.821045 1257.2018,256.418439 1258.35896,198.070287 C1258.63668,184.334103 1264.75738,170.714997 1268.19347,157.044158 C1280.88685,162.364377 1293.57478,167.676428 1311.24531,175.084982 C1313.9626,169.266503 1320.17043,159.565408 1323.11098,148.954921 C1329.42772,126.217384 1331.63858,100.250687 1362.95,98.6633337 C1385.56773,97.5088953 1421.52141,129.865845 1427.4733,154.69444 C1439.20284,203.635552 1426.83346,249.791309 1410.6087,295.41341 C1400.21331,324.639218 1389.19441,353.64993 1379.30273,383.047269 C1375.19685,395.253278 1372.69466,407.380327 1393.30029,407.886756 C1446.39357,409.190944 1456.91149,417.892796 1472.06894,469.003926 C1473.30778,473.188765 1475.16741,477.188459 1476.7357,481.272557 C1479.6817,481.808936 1482.62497,482.345314 1485.56552,482.878969 C1494.67306,451.224484 1504.28975,419.706136 1512.79284,387.893733 C1535.11108,304.406594 1556.29666,220.600897 1579.86463,137.475882 C1582.60914,127.777509 1598.55891,114.346271 1606.43305,115.538828 C1615.68762,116.941035 1628.32654,131.619285 1629.83221,141.949331 C1634.55887,174.387962 1636.51652,207.499109 1636.35588,240.33526 C1635.93657,328.687921 1633.79378,417.032413 1632.47054,505.379628 C1632.0349,534.809641 1640.24938,539.90115 1668.1111,531.204744 C1739.91772,508.777598 1812.86244,489.666741 1883.68343,464.541368 C1942.44543,443.701575 2004.12349,427.416914 2052.39753,383.433897 C2066.27257,370.792252 2082.3013,372.711778 2094.01449,388.73778 C2106.87395,406.318462 2099.37555,420.419492 2082.34758,427.444141 C2031.1221,448.586157 1979.82038,469.899705 1927.36422,487.635582 C1842.75259,516.248775 1757.40038,542.724624 1671.91748,568.639589 C1647.32304,576.09443 1640.9464,589.934078 1641.19145,614.17184 C1642.21792,716.565631 1641.86124,818.975758 1641.16967,921.369549 C1640.80754,974.958365 1636.58459,1028.59347 1637.97862,1082.1006 C1639.41895,1137.68246 1646.6832,1192.74972 1673.30063,1243.42249 C1681.07948,1258.23415 1683.89206,1275.60518 1665.03714,1285.16197 C1646.13048,1294.75143 1631.87426,1285.0939 1623.19147,1268.32187 C1613.68641,1249.96793 1605.81771,1230.74544 1597.78565,1211.66454 C1562.17231,1127.09103 1497.09901,1067.61022 1427.71291,1011.86228 C1372.10382,967.187687 1375.60798,972.660379 1348.81085,1037.79358 C1335.6056,1069.88098 1322.76519,1102.25699 1307.0278,1133.11643 C1297.74873,1151.3179 1281.24897,1164.81448 1258.30178,1157.74082 C1236.87116,1151.14909 1236.08973,1131.45557 1236.00805,1113.42836 C1235.71672,1043.74819 1236.92834,974.059863 1235.47712,904.40965 C1235.18034,889.998228 1228.76014,873.561094 1219.9276,862.098391 C1211.31832,850.918853 1199.39547,854.093558 1196.98585,870.753957 C1196.18809,876.305608 1196.3923,882.034237 1196.47126,887.675738 C1197.98782,999.615428 1200.00264,1111.55784 1200.7405,1223.50842 C1200.88481,1245.69324 1195.08266,1267.85901 1194.00446,1290.12551 C1192.73839,1316.22018 1192.38716,1342.50543 1194.01808,1368.56198 C1195.17796,1387.12557 1193.97179,1406.75919 1174.47703,1409.28589 C1163.0116,1410.76978 1146.89847,1397.85858 1137.5595,1387.29166 C1130.45045,1379.25143 1130.73633,1364.69026 1127.70593,1353.03968 C1115.68235,1306.90299 1104.16791,1260.62743 1091.47998,1214.67588 C1079.72867,1172.12774 1067.65607,1129.62045 1053.93622,1087.68492 C1044.76879,1059.67073 1032.47293,1032.68301 1021.57383,1005.23242 C1018.29566,1005.55643 1015.01477,1005.88043 1011.73388,1006.20989 C1008.7661,1015.15406 1004.87531,1023.90764 1002.98029,1033.06964 C984.561008,1122.33714 966.746171,1211.72444 948.084564,1300.92931 C943.858884,1321.13743 939.039648,1341.71856 930.593732,1360.35022 C926.128452,1370.2174 911.327679,1383.95086 904.643371,1382.26549 C894.253425,1379.6435 880.492737,1366.14147 879.221221,1355.87949 C873.78937,1312.08162 872.033208,1267.80455 869.71344,1223.66634 C868.333015,1197.44098 868.009009,1171.13122 867.867427,1144.8623 C867.303822,1038.77104 867.412731,932.685224 865.961515,826.613022 C865.811764,815.700311 858.190837,796.584008 851.83598,795.60927 C831.744939,792.524415 808.049,793.681576 801.008015,819.370554 C793.068528,848.313198 788.113155,878.086275 782.022403,907.527178 C766.031797,984.822824 751.247361,1062.39891 733.217428,1139.20991 C729.75139,1153.97256 713.660042,1165.76744 703.395342,1178.92913 C697.677604,1164.48503 685.855501,1149.39837 687.306717,1135.71664 C693.332123,1078.78704 703.863652,1022.36113 711.748684,965.613948 C717.640677,923.221007 722.007939,880.61297 727.235585,836.583667 C701.663684,836.572777 694.091766,850.472325 692.746736,870.40817 C689.321539,921.097276 688.311405,972.091328 682.095407,1022.44009 C661.98803,1185.32482 659.940535,1348.99915 657.269535,1512.70615 C656.82573,1539.91986 654.043097,1567.10362 651.998325,1594.27376 C650.29934,1616.88333 633.271373,1635.1338 615.219658,1632.71057 C592.08188,1629.5876 591.439315,1610.95049 592.136335,1593.86807 C595.754846,1505.49091 600.021367,1417.14097 604.227988,1328.78559 C607.443535,1261.15292 609.82048,1193.45218 614.547144,1125.92025 C619.927262,1049.01396 627.86675,972.298255 633.93572,895.44097 C636.037669,868.818094 618.982474,873.209861 604.611894,881.119399 C570.871796,899.677541 539.90344,925.091524 504.281934,937.983661 C452.781454,956.626209 439.551698,991.58609 436.932429,1041.29774 C430.504059,1163.35782 417.364153,1285.10479 412.558531,1407.19755 C409.084324,1495.45219 414.815676,1584.05807 416.100805,1672.50875 C416.577283,1705.45381 417.674544,1738.54045 415.117899,1771.29764 C414.292911,1781.85367 404.431175,1797.46038 395.555068,1800.08237 C386.009169,1802.89767 368.278736,1796.47747 362.125362,1788.16497 C351.452251,1773.7481 340.430631,1754.58823 340.890773,1737.72091 C344.242456,1614.53361 350.480236,1491.42527 355.680654,1368.29243 C358.817242,1294.02174 358.689273,1219.45427 365.536945,1145.53754 C373.675192,1057.67497 387.542067,970.335165 399.263429,882.815661 C413.625842,775.586297 428.481069,668.427725 442.680117,561.171134 C444.240243,549.395318 442.889768,537.227427 436.597533,522.873183 C432.502544,531.305485 427.707813,539.479127 424.424198,548.213652 C403.287627,604.508863 380.405786,660.264974 362.070907,717.469578 C336.869297,796.104807 312.201343,875.140279 292.831826,955.343802 C273.217263,1036.56018 261.384269,1119.63891 243.446909,1201.29909 C240.509081,1214.66499 223.639032,1224.96508 213.210968,1236.67555 C202.981663,1227.35836 190.459817,1219.58224 182.923295,1208.44354 C151.345046,1161.77319 167.036152,1109.75811 170.679168,1060.14993 C176.805315,976.706359 187.317784,893.584067 195.679295,810.303856 C196.689429,800.265142 195.818154,790.046728 195.818154,779.907273 C193.435764,779.223868 191.05065,778.543185 188.670982,777.859779 C176.655565,808.082107 164.411438,838.209139 152.679185,868.537653 C124.583311,941.147476 98.0039991,1014.38897 68.1083992,1086.25004 C57.2365294,1112.38011 26.7201466,1125.16061 11.1978502,1116.89167 C-4.5259284,1108.50838 -1.73240514,1085.05749 11.8839787,1055.50223 C38.1365629,998.526335 62.9433762,940.785353 85.680913,882.320123 C116.336155,803.494303 145.346867,723.993244 173.380118,644.18724 C192.039002,591.055843 206.997693,536.631149 225.185544,483.320052 C232.114898,463.016638 241.570947,442.941933 253.599978,425.298628 C259.080838,417.2584 275.060553,409.939696 283.599041,412.240404 C292.025898,414.513886 300.855718,428.653034 302.693562,438.816994 C305.282881,453.16307 302.361389,468.734375 300.479981,483.614107 C288.682382,576.982041 276.386524,670.284628 264.651548,763.666176 C263.325577,774.205872 264.471847,785.05596 264.471847,795.761743 C266.854238,796.13748 269.231183,796.513217 271.610851,796.888954 C279.792662,774.587055 287.868285,752.241591 296.169896,729.985978 C333.931469,628.768407 372.101452,527.706033 409.432834,426.330544 C434.095342,359.356776 457.293021,291.846631 481.865679,224.840191 C486.58962,211.953499 494.235052,200.049714 501.262424,188.124147 C510.220213,172.925855 518.510932,156.965199 529.818439,143.651038 C536.74507,135.488287 551.48322,124.932254 557.892531,127.497068 C567.283235,131.257161 573.619033,145.211164 578.694206,156.028579 C581.003083,160.940388 577.180367,168.738293 576.121224,175.221119 C544.071943,371.056357 511.984543,566.883427 480.101349,762.740447 C478.661024,771.608386 479.121165,780.783993 478.693696,789.820741 C481.103314,790.713798 483.507487,791.601408 485.914382,792.494465 C501.161683,765.476793 518.162423,739.273218 531.179806,711.229076 C545.272668,680.85972 554.927476,648.467375 567.857731,617.515355 C579.41573,589.852396 592.58014,562.842892 605.420545,535.729925 C626.328406,491.569931 646.490238,447.001527 669.197825,403.780875 C677.58384,387.817496 690.473254,372.760787 704.832944,361.995104 C712.391249,356.331821 730.364004,356.568699 738.472301,361.937926 C746.166742,367.032158 751.546861,382.804946 750.370641,393.009747 C736.680743,511.647358 721.261911,630.083487 707.277958,748.688426 C705.932928,760.104842 711.17691,772.302682 713.357819,784.135677 C726.88163,775.553625 747.751372,769.841332 752.434472,757.817747 C762.8462,731.115912 764.256575,701.046057 770.946328,672.732365 C783.476342,619.7126 797.890486,567.136641 810.099218,514.054253 C818.705774,476.638467 826.059874,438.846944 831.960035,400.911116 C837.585199,364.753232 839.869572,328.083474 845.342264,291.898363 C846.493979,284.299217 854.300053,273.234033 860.578673,272.068704 C867.510749,270.783574 878.137573,277.277291 883.830806,283.447002 C911.834107,313.821803 921.527034,349.14653 920.783728,391.479571 C919.003061,493.045651 923.650765,594.696136 923.362156,696.311226 C923.027259,816.732227 920.146609,937.147782 918.66272,1057.56878 C918.502079,1070.23766 920.309973,1082.92014 921.203029,1095.60263 C923.672547,1096.22069 926.139342,1096.84147 928.600692,1097.45953 C932.423408,1088.96189 938.220105,1080.79913 939.747558,1071.90669 C950.227354,1010.80586 958.237633,949.239436 970.195873,888.440825 C979.752663,839.837332 995.84401,792.524415 1005.38991,743.920922 C1030.40093,616.524281 1052.8907,488.640271 1077.44702,361.156502 C1089.52506,298.446534 1104.65256,236.324675 1117.06005,173.671884 C1124.15821,137.805332 1128.4084,101.377898 1134.24049,65.2526866 C1136.62833,50.4573596 1136.51669,33.8514158 1143.67476,21.6671891 C1149.51502,11.7346619 1164.46826,7.14685811 1175.38097,0.193 C1181.8039,11.4133795 1194.73688,23.4097377 1193.50892,33.7261701 C1188.31395,77.4723088 1179.28265,120.790979 1170.94564,164.128707 C1161.00222,215.811611 1150.22293,267.333872 1140.14882,318.986826 C1138.96988,325.028568 1139.9909,331.503226 1139.9909,337.779123 C1142.53121,338.299165 1145.0688,338.82193 1147.61183,339.344694 Z" id="Fill-3" fill="#1A1919"></path>
    </g>
</svg>
